<?xml version="1.0" encoding="utf-8"?>
<!-- Generator: Adobe Illustrator 26.3.1, SVG Export Plug-In . SVG Version: 6.00 Build 0)  -->
<svg version="1.1" id="Layer_1" xmlns="http://www.w3.org/2000/svg" xmlns:xlink="http://www.w3.org/1999/xlink" x="0px" y="0px"
	 viewBox="0 0 1920 1080" style="enable-background:new 0 0 1920 1080;" xml:space="preserve">
<style type="text/css">
	.st0{display:none;fill:#FFF2A5;}
	.st1{display:none;}
	.st2{display:inline;}
	.st3{display:inline;clip-path:url(#SVGID_00000089566670794634275820000010090784662910776759_);}
	.st4{fill:none;stroke:#FFF2A5;stroke-width:2;stroke-miterlimit:10;}
	.st5{clip-path:url(#SVGID_00000089566670794634275820000010090784662910776759_);fill:#DFB7FF;}
	.st6{display:inline;clip-path:url(#SVGID_00000085957886777199184820000005131638741436489649_);}
	.st7{clip-path:url(#SVGID_00000085957886777199184820000005131638741436489649_);fill:#DFB7FF;}
	.st8{clip-path:url(#SVGID_00000003792041093958126260000013836578170747977604_);}
</style>
<rect class="st0" width="1920" height="1080"/>
<g class="st1">
	<defs>
		<rect id="SVGID_1_" width="1920" height="1080"/>
	</defs>
	<clipPath id="SVGID_00000047768555033612196300000003127227261749686926_" class="st2">
		<use xlink:href="#SVGID_1_"  style="overflow:visible;"/>
	</clipPath>
	<g style="display:inline;clip-path:url(#SVGID_00000047768555033612196300000003127227261749686926_);">
		<g>
			<path class="st4" d="M-300-412.03c242.5,42.22,484.94,121.82,727.32,170.21c242.38,51.54,484.7,71.87,726.95,68.06
				c242.26-1.51,484.45-27.18,726.58-14.8c242.13,13.84,484.2,65.72,726.21,252.89c0.55,389.74-0.56,778.56,0,1169.12
				c-242.5-107.95-484.94-80.1-727.32-14.28c-242.38,67.3-484.7,172.58-726.95,253.56c-242.26,83.29-484.45,142.31-726.59,170.21
				c-242.13,31.04-484.21,30.96-726.22,68.28C-300.56,1004.48-299.44,297.43-300-412.03z"/>
			<path class="st4" d="M-300.05,1647c230.84-12.05,464.53-7.53,701.08-38.26c236.55-28.11,475.95-91.47,718.21-179.03
				c242.26-85.31,487.37-194.84,735.33-263.62c247.97-66.89,498.78-93.03,752.46,31.86"/>
			<path class="st4" d="M-300.08,1582.76c221.77,10.56,448.65,20.2,680.66-9.56c232.01-27.55,469.14-94.5,711.4-185.99
				c242.26-89.27,489.64-203.06,742.14-273.24c252.5-67.96,510.13-92.3,772.87,48.5"/>
			<path class="st4" d="M-300.11,1518.51c214.65,30.32,436.21,45.99,664.66,17.71c228.46-26.27,463.81-96.48,706.07-191.67
				c242.26-92.99,491.41-210.95,747.47-282c256.06-68.65,519.02-90.39,788.88,64.43"/>
			<path class="st4" d="M-300.14,1454.24c209.37,48.54,426.96,70.17,652.77,43.49c225.81-24.83,459.85-97.96,702.1-196.47
				c242.26-96.31,492.74-217.99,751.44-289.53c258.7-69.01,525.62-87.9,800.77,79.77"/>
			<path class="st4" d="M-300.15,1389.97c205.78,65.4,420.67,92.88,644.69,67.78c224.02-23.36,457.15-99.3,699.41-200.77
				c242.26-99.31,493.63-224.16,754.13-295.62c260.5-68.87,530.11-84.36,808.85,94.68"/>
			<path class="st4" d="M-300.16,1325.7c203.74,81.27,417.11,114.28,640.1,90.59c223-22.03,455.62-100.76,697.88-204.87
				c242.26-102,494.14-229.36,755.66-300.08c261.52-68.15,532.66-79.66,813.44,109.24"/>
			<path class="st4" d="M-300.16,1261.42c203.12,96.4,416.03,134.48,638.72,111.93c222.69-20.96,455.16-102.55,697.42-208.95
				c242.26-104.36,494.3-233.52,756.12-302.8c261.82-66.8,533.43-73.73,814.82,123.51"/>
			<path class="st4" d="M-300.16,1197.14c203.79,110.98,417.2,153.56,640.22,131.81c223.02-20.23,455.66-104.79,697.92-213.11
				c242.26-106.4,494.13-236.55,755.62-303.68c261.49-64.8,532.6-66.57,813.32,137.51"/>
			<path class="st4" d="M-300.15,1132.86c205.61,125.13,420.38,171.53,644.31,150.2c223.93-19.89,457.03-107.52,699.28-217.38
				c242.26-108.09,493.67-238.41,754.25-302.68c260.58-62.14,530.32-58.23,809.23,151.23"/>
			<path class="st4" d="M-300.14,1068.57c208.44,138.86,425.34,188.38,650.69,167.09c225.35-19.95,459.15-110.7,701.41-221.71
				c242.26-109.4,492.97-239.04,752.13-299.79c259.16-58.86,526.78-48.81,802.85,164.63"/>
			<path class="st4" d="M-300.12,1004.28c212.16,152.17,431.84,204.03,659.05,182.43c227.21-20.4,461.94-114.27,704.2-225.97
				c242.26-110.29,492.04-238.41,749.34-295c257.31-54.99,522.14-38.46,794.49,177.62"/>
			<path class="st4" d="M-300.11,939.99c216.62,163.83,439.64,218.21,669.08,196.25c229.44-20.78,465.28-117.91,707.54-230.05
				c242.26-110.97,490.92-236.95,746-288.44c255.08-50.32,516.57-26.17,784.46,190.19"/>
			<path class="st4" d="M-300.08,875.69c221.68,176.43,448.51,231.32,680.48,208.38c231.97-22.02,469.08-121.86,711.34-233.6
				c242.26-110.82,489.66-233.54,742.2-280.06c252.54-45.6,510.23-15,773.06,202.11"/>
			<path class="st4" d="M-300.06,811.39c227.22,188.11,458.2,242.93,692.94,218.88c234.74-23.39,473.24-125.65,715.49-236.48
				c242.26-110.17,488.27-228.91,738.05-270.06c249.77-40.49,503.31-3.38,760.6,213.37"/>
			<path class="st4" d="M-300.04,747.08c233.1,198.65,468.49,252.93,706.17,227.75c237.68-24.79,477.65-129.05,719.9-238.43
				c242.26-108.99,486.8-223.11,733.64-258.59c246.83-35.08,495.96,8.47,747.37,223.88"/>
			<path class="st4" d="M-300.01,682.77c478.36,416.51,959.8,211.4,1444.32-4.28c484.51-213.64,972.1-437.86,1462.76-12.21"/>
			<path class="st4" d="M-299.99,618.45c490.66,430.23,978.25,211.1,1462.76,2.25c484.51-210.84,965.95-411.39,1444.32,10.18"/>
			<path class="st4" d="M-299.96,554.13c251.41,221.44,500.54,272.46,747.37,244.89c246.83-27.93,491.38-134.44,733.64-236.22
				c242.26-102.14,482.22-199.55,719.9-217.44c237.68-18.24,473.07,43.04,706.17,250.12"/>
			<path class="st4" d="M-299.94,489.79c257.29,225.49,510.82,275.29,760.6,247.64c249.77-28.2,495.79-133.84,738.05-232.03
				c242.26-98.74,480.75-190.02,715.49-202.27c234.74-12.8,465.72,53.43,692.94,256.93"/>
			<path class="st4" d="M-299.92,425.44C-37.08,652.96,220.6,701.68,473.15,674.5c252.54-27.9,499.94-131.7,742.2-225.78
				c242.26-94.8,479.37-179.87,711.34-186.79c231.97-7.64,458.79,62.88,680.48,262.73"/>
			<path class="st4" d="M-299.89,361.09C-32,588.48,229.49,636.41,484.57,610.33c255.08-26.91,503.74-127.84,746-217.33
				c242.26-90.33,478.1-169.23,707.54-171.26c229.44-2.85,452.46,71.17,669.08,267.52"/>
			<path class="st4" d="M-299.88,296.72c272.36,225.05,537.19,272.56,794.49,248.29c257.31-25.16,507.09-122.1,749.34-206.56
				c242.26-85.36,476.99-158.25,704.2-155.91c227.21,1.45,446.89,78.14,659.05,271.33"/>
			<path class="st4" d="M-299.86,232.34c276.07,220.41,543.69,267.97,802.85,246.3c259.16-22.57,509.87-114.37,752.13-193.39
				c242.26-79.92,476.06-147.05,701.41-140.95c225.35,5.2,442.25,83.64,650.69,274.17"/>
			<path class="st4" d="M-299.85,167.95c278.9,211.86,548.65,261.29,809.22,243.41c260.58-18.52,512-104.33,754.25-177.84
				c242.26-74.34,475.35-136.37,699.28-126.62c223.93,8.72,438.7,89.21,644.31,276.15"/>
			<path class="st4" d="M-299.84,103.55c280.72,201.48,551.83,252.93,813.32,239.59c261.49-13.74,513.36-92.26,755.62-159.76
				c242.26-68.22,474.9-125.42,697.92-112.94c223.02,11.45,436.43,92.58,640.22,277.21"/>
			<path class="st4" d="M-299.84,39.13c562.78,376.73,1086.43,217.83,1570.94,95.68c242.26-61.71,474.73-114.55,697.42-99.98
				c222.69,13.57,435.59,94.54,638.72,277.41"/>
			<path class="st4" d="M-299.84-25.3c280.78,173.01,551.92,230.82,813.44,229.29c261.52-1.15,513.4-61.64,755.66-116.2
				c242.26-54.82,474.88-103.7,697.88-87.71c223,15.07,436.36,95.02,640.1,276.75"/>
			<path class="st4" d="M-299.85-89.74C-21.11,65.42,248.51,127.34,509,132.98c260.5,6.53,511.87-43.22,754.13-90.76
				c242.26-47.48,475.39-92.78,699.41-76.03c224.02,15.97,438.91,93.99,644.69,275.23"/>
			<path class="st4" d="M-299.86-154.18C-24.72-19.01,242.2,47.35,500.9,60.89c258.7,14.97,509.18-22.89,751.44-62.99
				c242.26-39.65,476.29-81.57,702.1-64.69c225.81,16.31,443.4,91.41,652.77,272.8"/>
			<path class="st4" d="M-299.89-218.64C-30.03-105.25,232.93-34.44,488.99-12.45c256.06,23.98,505.22-0.87,747.47-32.81
				c484.51-64.28,941.42-150.11,1370.73,215.84"/>
			<path class="st4" d="M-299.92-283.1c262.75,90.23,520.37,165.08,772.87,195.89c252.5,33.3,499.88,22.56,742.14-1.06
				c484.51-43.15,948.54-142.46,1392.07,223.44"/>
			<path class="st4" d="M-299.95-347.57C-46.28-281.3,204.54-203.32,452.51-163.6c247.97,42.62,493.08,46.98,735.33,32.87
				c242.26-12.29,481.66-43.06,718.21-29.04c236.55,14.75,470.24,74.3,701.08,259.52"/>
			<path class="st4" d="M2556.13,26.87c28.46,397.74-28.57,752.2-0.1,1185.81"/>
			<path class="st4" d="M2505.18-6.77c27.68,198.69,13.79,386.04-0.1,575.53c-13.89,189.07-27.79,394.48-0.1,626.98"/>
			<path class="st4" d="M2454.22-36.79c20.32,98.2,25.38,195.29,22.81,289.75c-2.57,94.77-12.77,186.9-22.96,282.31
				c-10.2,95.4-20.39,194.06-22.96,301.56c-2.57,107.17,2.49,223.19,22.81,345.6"/>
			<path class="st4" d="M2403.27-63.42c26.55,97.29,33.16,193.74,29.81,287.64c-3.35,94.25-16.68,185.96-30,281.94
				c-13.32,95.95-26.65,196.16-30,306.91c-3.36,110.35,3.26,231.24,29.81,359.46"/>
			<path class="st4" d="M2352.31-86.87c32.53,95.98,40.63,191.6,36.52,285.15c-4.11,93.92-20.43,185.78-36.76,282.82
				c-16.32,97.02-32.65,199.22-36.76,313.11c-4.11,113.46,3.99,238.63,36.52,371.6"/>
			<path class="st4" d="M2301.35-107.34c38.26,94.37,47.79,189.02,42.95,282.41c-4.83,93.77-24.03,186.28-43.23,284.84
				c-19.2,98.53-38.4,203.09-43.23,320.02c-4.83,116.48,4.7,245.33,42.95,382.14"/>
			<path class="st4" d="M2250.39-125.04c43.74,92.55,54.64,186.14,49.11,279.59c-5.53,93.79-27.48,187.43-49.43,287.91
				c-21.95,100.43-43.9,207.67-49.43,327.5c-5.53,119.39,5.37,251.37,49.11,391.18"/>
			<path class="st4" d="M2199.42-140.17c97.94,183.05,48.79,365.1-0.36,568.7c-24.58,102.67-49.15,212.85-55.34,335.42
				c-6.19,122.17,6.01,256.74,54.98,398.8"/>
			<path class="st4" d="M2148.46-152.93c107.91,178.69,53.76,361.81-0.39,570.92c-27.08,105.19-54.15,218.51-60.97,343.66
				c-6.82,124.8,6.62,261.45,60.58,405.11"/>
			<path class="st4" d="M2097.49-163.51c117.38,174.31,58.48,358.95-0.43,574.36c-58.9,213.92-117.81,470.92-0.43,762.1"/>
			<path class="st4" d="M2046.52-172.1c126.35,171.22,62.94,355.55-0.46,578.52c-63.4,221.65-126.81,481.94-0.46,774.71"/>
			<path class="st4" d="M1995.55-178.89c134.82,166.18,67.16,355.02-0.49,583.89c-67.65,227.47-135.31,494.97-0.49,786.11"/>
			<path class="st4" d="M1944.58-184.05c142.79,161.44,71.13,355.4-0.52,590.34c-71.66,233.47-143.31,507.92-0.52,796.42"/>
			<path class="st4" d="M1893.61-187.77c75.13,80.91,93.85,168.06,84.35,267.3c-9.49,98.9-47.2,209.89-84.9,330.42
				c-75.41,242.19-150.81,518.3-0.55,805.81"/>
			<path class="st4" d="M1842.63-190.21c78.62,80.21,98.2,167.03,88.27,267.85c-9.94,100.33-49.39,214.67-88.84,338.64
				c-39.45,123.87-78.91,257.39-88.84,393.91c-9.94,136.81,9.65,276.62,88.27,419.91"/>
			<path class="st4" d="M1791.65-191.54c81.86,79.9,102.25,166.64,91.9,269.22c-10.34,101.94-51.42,219.73-92.5,347.03
				c-41.08,127.2-82.16,263.94-92.5,401.59c-10.34,138.11,10.05,277.14,91.91,419.23"/>
			<path class="st4" d="M1740.67-191.93c84.85,80.03,105.98,166.95,95.26,271.47c-10.72,103.73-53.3,225.04-95.88,355.65
				c-42.58,130.51-85.16,270.31-95.88,408.9c-10.72,139.19,10.41,277.15,95.26,417.83"/>
			<path class="st4" d="M1689.69-191.53c87.59,80.62,109.41,168.03,98.34,274.65c-11.07,105.68-55.02,230.57-98.98,364.42
				c-43.95,133.75-87.91,276.47-98.98,415.76c-11.07,140.06,10.75,276.69,98.34,415.77"/>
			<path class="st4" d="M1638.71-190.48c90.08,81.69,112.52,169.91,101.14,278.81c-11.38,107.81-56.59,236.29-101.79,373.29
				c-45.2,136.91-90.41,282.35-101.79,422.14c-11.38,140.71,11.05,275.78,101.14,413.12"/>
			<path class="st4" d="M1587.73-188.95c92.32,83.27,115.32,172.64,103.65,283.98c-11.67,110.1-58,242.17-104.33,382.21
				c-46.33,139.96-92.66,287.91-104.33,428c-11.67,141.16,11.33,274.45,103.65,409.94"/>
			<path class="st4" d="M1536.74-187.05c94.32,85.37,117.81,176.24,105.89,290.18c-11.92,112.55-59.25,248.17-106.58,391.13
				c-47.33,142.88-94.66,293.12-106.58,433.29c-11.92,141.41,11.57,272.75,105.89,406.28"/>
			<path class="st4" d="M1485.75-184.92c96.06,88,119.99,180.74,107.85,297.42c-12.14,115.17-60.34,254.28-108.55,400.01
				c-48.21,145.65-96.41,297.93-108.55,438.01c-12.14,141.46,11.79,270.7,107.85,402.2"/>
			<path class="st4" d="M1434.76-182.7c97.56,91.15,121.86,186.14,109.53,305.72c-12.33,117.94-61.28,260.47-110.24,408.79
				c-48.96,148.25-97.91,302.33-110.24,442.12c-12.33,141.32,11.97,268.36,109.53,397.75"/>
			<path class="st4" d="M1383.77-180.49c98.8,94.82,123.41,192.44,110.93,315.06c-12.49,120.86-62.07,266.71-111.65,417.45
				c-49.58,150.68-99.16,306.28-111.65,445.62c-12.49,141,12.12,265.75,110.93,393"/>
			<path class="st4" d="M1332.77-178.42c99.8,99,124.66,199.65,112.04,325.43c-12.61,123.93-62.69,272.98-112.77,425.94
				c-50.08,152.91-100.16,309.77-112.77,448.51c-12.61,140.52,12.25,262.93,112.05,388"/>
			<path class="st4" d="M1281.78-176.58c100.55,103.67,125.59,207.73,112.88,336.79c-12.71,127.13-63.16,279.26-113.62,434.24
				c-50.46,154.95-100.91,312.78-113.62,450.78c-12.71,139.88,12.34,259.93,112.88,382.8"/>
			<path class="st4" d="M1230.78-175.07c101.04,108.81,126.21,216.67,113.44,349.13c-12.77,130.46-63.48,285.52-114.18,442.32
				c-50.71,156.77-101.41,315.31-114.18,452.44c-12.77,139.11,12.4,256.81,113.44,377.46"/>
			<path class="st4" d="M1179.78-173.99C1281.07-59.6,1306.3,52.43,1293.5,188.39c-12.8,133.91-63.63,291.74-114.46,450.14
				c-50.83,158.38-101.66,317.36-114.46,453.52c-12.8,138.21,12.43,253.6,113.72,372.04"/>
			<path class="st4" d="M1128.78-173.41c101.29,120.37,126.52,236.95,113.72,376.5c-12.8,137.46-63.63,297.9-114.46,457.69
				c-50.83,159.78-101.66,318.93-114.46,454.04c-12.8,137.21,12.43,250.37,113.72,366.59"/>
			<path class="st4" d="M1077.77-173.41c101.04,126.73,126.21,248.19,113.44,391.4c-12.77,141.12-63.48,303.98-114.18,464.94
				c-50.71,160.96-101.41,320.03-114.18,454.02c-12.77,136.12,12.4,247.15,113.44,361.19"/>
			<path class="st4" d="M1026.77-174.06c100.55,133.4,125.59,260.08,112.88,407.02c-12.71,144.85-63.16,309.96-113.62,471.87
				c-50.46,161.92-100.91,320.68-113.62,453.5c-12.71,134.97,12.34,243.99,112.88,355.87"/>
			<path class="st4" d="M975.76-175.41c99.8,140.35,124.66,272.55,112.04,423.27c-12.61,148.66-62.69,315.82-112.77,478.48
				c-50.08,162.68-100.16,320.89-112.77,452.53c-12.61,133.77,12.25,240.96,112.04,350.72"/>
			<path class="st4" d="M924.75-177.51c98.8,147.52,123.41,285.52,110.93,440.03c-12.49,152.51-62.07,321.54-111.65,484.75
				c-49.58,163.24-99.16,320.69-111.65,451.15c-12.49,132.55,12.12,238.1,110.93,345.79"/>
			<path class="st4" d="M873.74-180.41C971.3-25.56,995.6,118.48,983.27,276.8c-12.33,156.4-61.28,327.1-110.24,490.66
				c-48.96,163.61-97.91,320.12-110.24,449.42c-12.33,131.33,11.97,235.46,109.53,341.15"/>
			<path class="st4" d="M822.73-184.13c96.06,162.27,119.99,312.54,107.85,474.67c-12.14,160.3-60.35,332.47-108.55,496.22
				c-48.21,163.79-96.41,319.2-108.55,447.4c-12.14,130.15,11.79,233.09,107.85,336.88"/>
			<path class="st4" d="M771.72-188.7c94.32,169.72,117.81,326.38,105.89,492.29c-11.92,164.2-59.25,337.64-106.58,501.4
				c-47.33,163.81-94.66,317.97-106.58,445.15c-11.92,129.02,11.57,231.06,105.89,333.04"/>
			<path class="st4" d="M720.7-194.13C813.03-17,836.02,146.14,824.35,315.77c-11.67,168.06-58,342.6-104.33,506.22
				c-46.33,163.69-92.66,316.5-104.33,442.77c-11.67,127.98,11.33,229.41,103.65,329.71"/>
			<path class="st4" d="M669.68-200.43c90.08,184.41,112.52,354.1,101.14,527.37c-11.38,171.86-56.59,347.3-101.79,510.67
				c-45.21,163.43-90.41,314.82-101.79,440.31c-11.38,127.05,11.05,228.19,101.14,326.97"/>
			<path class="st4" d="M618.66-207.58c87.59,191.49,109.41,367.7,98.34,544.5c-11.07,175.57-55.02,351.75-98.98,514.75
				c-43.96,163.07-87.91,313-98.98,437.88c-11.07,126.26,10.75,227.47,98.34,324.91"/>
			<path class="st4" d="M567.64-215.58c84.85,198.29,105.98,380.93,95.26,561.14c-10.72,179.17-53.3,355.9-95.88,518.45
				c-42.58,162.62-85.16,311.1-95.88,435.56c-10.72,125.65,10.41,227.29,95.26,323.61"/>
			<path class="st4" d="M516.62-224.4c81.86,204.71,102.25,393.63,91.91,577.07c-10.34,182.61-51.42,359.74-92.5,521.79
				c-41.08,162.12-82.16,309.18-92.5,433.45c-10.34,125.25,10.05,227.7,91.91,323.17"/>
			<path class="st4" d="M465.59-233.99c78.62,210.67,98.2,405.62,88.27,592.1c-9.94,185.87-49.39,363.25-88.84,524.77
				c-39.45,161.59-78.91,307.32-88.84,431.65c-9.94,125.08,9.65,228.76,88.27,323.69"/>
			<path class="st4" d="M414.57-244.31c75.13,216.07,93.85,416.73,84.35,606c-9.49,188.89-47.2,366.4-84.9,527.39
				c-37.7,161.06-75.41,305.61-84.9,430.28c-9.49,125.2,9.22,230.52,84.35,325.26"/>
			<path class="st4" d="M363.54-255.31c142.79,440.69,71.13,826.24-0.52,1148.01c-71.66,323.17-143.31,569.55-0.52,757.65"/>
			<path class="st4" d="M312.51-266.91c134.82,450.23,67.16,841.32-0.49,1161.05c-67.66,320.78-135.31,570.21-0.49,761.34"/>
			<path class="st4" d="M261.48-279.03c126.35,457.83,62.94,854.14-0.46,1171.92c-63.4,318.43-126.81,572.19-0.46,767.2"/>
			<path class="st4" d="M210.44-291.59c58.69,230.18,73.31,448.29,65.89,645.61c-7.42,197.82-36.87,374.83-66.32,534.44
				c-29.45,159.67-58.9,301.92-66.32,431.44c-7.42,129.12,7.2,245.51,65.89,344.36"/>
			<path class="st4" d="M159.41-304.47c53.96,231.33,67.39,451.89,60.58,650.2c-6.82,199-33.89,375.74-60.97,535.39
				c-27.08,159.7-54.15,302.29-60.97,434.04c-6.82,131.16,6.62,251.49,60.58,352.95"/>
			<path class="st4" d="M108.37-317.57c48.97,231.32,61.17,453.31,54.98,652.11c-6.19,199.65-30.76,376.11-55.34,536.03
				c-24.58,159.97-49.15,303.38-55.34,437.84c-6.19,133.69,6.01,258.44,54.98,363.34"/>
			<path class="st4" d="M57.33-330.75c43.74,230.06,54.64,452.31,49.11,651.04c-5.53,199.7-27.48,375.89-49.43,536.37
				c-21.95,160.52-43.9,305.32-49.43,443c-5.53,136.77,5.37,266.41,49.11,375.66"/>
			<path class="st4" d="M6.29-343.87c38.26,227.43,47.79,448.62,42.95,646.65C44.41,501.87,25.21,677.82,6.01,839.19
				c-19.2,161.41-38.4,308.23-43.23,449.66c-4.83,140.42,4.7,275.43,42.95,390.08"/>
			<path class="st4" d="M-44.76-356.79C-12.23-133.46-4.12,85.18-8.24,281.85c-4.11,197.75-20.43,373.52-36.76,536.18
				C-61.32,980.71-77.64,1130.27-81.75,1276c-4.11,144.69,3.99,285.55,36.52,406.75"/>
			<path class="st4" d="M-95.8-369.34c26.55,217.66,33.16,432.1,29.81,626.65c-3.35,195.59-16.68,371.28-30,535.67
				c-13.32,164.41-26.65,317.49-30,468.13c-3.36,149.62,3.26,296.79,29.81,425.85"/>
			<path class="st4" d="M-146.85-381.33C-126.53-171-121.47,37.4-124.03,229C-126.6,421.53-136.8,597.27-147,763.88
				c-10.2,166.62-20.39,324.1-22.96,480.27c-2.57,155.25,2.49,309.19,22.81,447.55"/>
			<path class="st4" d="M-197.9-392.58c13.84,201.22,17.29,401.54,15.54,589.31c-1.75,188.5-8.7,364.44-15.64,533.84
				c-6.95,169.4-13.89,332.24-15.64,494.59c-1.75,161.63,1.7,322.76,15.54,472.04"/>
			<path class="st4" d="M-248.95-402.89c7.12,190.23,8.89,380.26,7.99,563.23c-0.9,183.4-4.47,359.74-8.04,532.53
				c-3.57,172.8-7.14,342.04-8.04,511.26c-0.9,168.79,0.87,337.54,7.99,499.5"/>
		</g>
	</g>
	<path style="clip-path:url(#SVGID_00000047768555033612196300000003127227261749686926_);fill:#DFB7FF;" d="M-66.83,1275.31
		c-78.17-194.4-111.55-364.05,82.85-442.22c100.22-40.3,257.75,88.88,348.89,130.33c85.64,38.95,319.6,42.65,357.47,136.82
		c78.17,194.4-101.27,307.36-295.67,385.53S11.34,1469.71-66.83,1275.31z"/>
	
		<use xlink:href="#SVGID_1_"  style="display:inline;overflow:visible;fill:none;stroke:#FFFFFF;stroke-width:2;stroke-miterlimit:10;"/>
</g>
<g class="st1">
	<defs>
		
			<rect id="SVGID_00000175302370629760103380000011874382289167627930_" x="-2.92" y="0" transform="matrix(-1 -4.489488e-11 4.489488e-11 -1 1914.1538 1080)" width="1920" height="1080"/>
	</defs>
	<clipPath id="SVGID_00000124154513823359051300000011928557428138198451_" class="st2">
		<use xlink:href="#SVGID_00000175302370629760103380000011874382289167627930_"  style="overflow:visible;"/>
	</clipPath>
	<g style="display:inline;clip-path:url(#SVGID_00000124154513823359051300000011928557428138198451_);">
		<g>
			<path class="st4" d="M2217.08,64.32C1975.07-122.84,1733-174.73,1490.86-188.56c-242.13-12.37-484.33,13.33-726.58,14.84
				c-242.26,3.81-484.57-16.55-726.95-68.1c-242.38-48.41-484.82-128-727.32-170.22c0.56,709.46-0.56,1416.51,0,2123.26
				c242.01-37.32,484.08-37.24,726.22-68.29c242.13-27.91,484.33-86.96,726.58-170.25c242.26-80.98,484.57-186.23,726.95-253.52
				c242.38-65.81,484.82-93.66,727.32,14.28C2216.52,842.88,2217.64,454.07,2217.08,64.32z"/>
			<path class="st4" d="M2217.03,1197.95c-253.67-124.89-504.49-98.76-752.46-31.86c-247.97,68.78-493.08,178.32-735.33,263.64
				c-242.26,87.56-481.66,150.91-718.21,179.02c-236.55,30.72-470.24,26.21-701.08,38.25"/>
			<path class="st4" d="M2216.99,1162.46c-262.75-140.8-520.37-116.46-772.87-48.5c-252.5,70.18-499.88,183.97-742.14,273.24
				c-242.26,91.49-479.39,158.44-711.4,185.99c-232.01,29.77-458.9,20.12-680.66,9.56"/>
			<path class="st4" d="M2216.96,1126.98c-269.86-154.82-532.82-133.08-788.88-64.43c-256.06,71.05-505.22,189.01-747.47,281.99
				C438.36,1439.73,203,1509.95-25.45,1536.22c-228.46,28.28-450.01,12.61-664.66-17.71"/>
			<path class="st4" d="M2216.94,1091.51c-275.14-167.67-542.07-148.78-800.77-79.78c-258.7,71.54-509.18,193.21-751.43,289.52
				c-242.26,98.5-476.29,171.65-702.1,196.48c-225.81,26.68-443.4,5.05-652.77-43.49"/>
			<path class="st4" d="M2216.93,1056.04c-278.74-179.04-548.35-163.55-808.85-94.68c-260.5,71.45-511.87,196.29-754.13,295.6
				c-242.26,101.48-475.39,177.42-699.41,200.79c-224.02,25.1-438.91-2.37-644.69-67.77"/>
			<path class="st4" d="M2216.92,1020.57c-280.77-188.9-551.92-177.39-813.44-109.24c-261.52,70.71-513.4,198.07-755.66,300.06
				c-242.26,104.11-474.88,182.85-697.88,204.89c-223,23.69-436.37-9.32-640.1-90.58"/>
			<path class="st4" d="M2216.92,985.12c-281.39-197.24-553-190.31-814.82-123.51c-261.82,69.28-513.86,198.42-756.12,302.78
				c-242.26,106.4-474.73,188-697.42,208.97c-222.69,22.55-435.59-15.53-638.72-111.93"/>
			<path class="st4" d="M2216.92,949.67c-280.72-204.09-551.83-202.31-813.32-137.52c-261.49,67.12-513.36,197.27-755.62,303.66
				c-242.26,108.32-474.9,192.9-697.92,213.13c-223.02,21.76-436.43-20.82-640.22-131.81"/>
			<path class="st4" d="M2216.93,914.23c-278.9-209.47-548.64-213.37-809.22-151.24c-260.58,64.27-512,194.58-754.25,302.67
				c-242.26,109.87-475.35,197.5-699.28,217.4c-223.93,21.33-438.7-25.08-644.31-150.2"/>
			<path class="st4" d="M2216.94,878.79c-276.07-213.44-543.69-223.48-802.85-164.63c-259.16,60.74-509.87,190.38-752.13,299.77
				C419.7,1124.94,185.9,1215.7-39.45,1235.66c-225.35,21.29-442.25-28.22-650.69-167.09"/>
			<path class="st4" d="M2216.95,843.36c-272.36-216.08-537.19-232.61-794.49-177.62c-257.31,56.6-507.09,184.7-749.34,294.99
				c-242.26,111.7-476.99,205.57-704.2,225.98c-227.21,21.6-446.89-30.26-659.05-182.43"/>
			<path class="st4" d="M2216.97,807.94c-267.9-216.36-529.39-240.52-784.46-190.19c-255.08,51.5-503.74,177.48-746,288.44
				c-242.26,112.14-478.1,209.27-707.54,230.05c-229.44,21.96-452.46-32.42-669.08-196.25"/>
			<path class="st4" d="M2216.99,772.52c-262.83-217.11-520.52-247.71-773.06-202.11c-252.54,46.52-499.94,169.24-742.2,280.06
				c-242.26,111.74-479.37,211.59-711.34,233.6c-231.97,22.94-458.79-31.95-680.48-208.38"/>
			<path class="st4" d="M2217.01,737.1c-257.29-216.75-510.82-253.86-760.6-213.37c-249.77,41.15-495.79,159.89-738.05,270.06
				C476.12,904.61,237.62,1006.88,2.88,1030.27c-234.74,24.05-465.72-30.77-692.94-218.88"/>
			<path class="st4" d="M2217.04,701.69c-251.41-215.41-500.54-258.97-747.37-223.88c-246.83,35.48-491.38,149.6-733.64,258.59
				C493.78,845.78,253.81,950.04,16.13,974.83c-237.68,25.18-473.07-29.1-706.17-227.75"/>
			<path class="st4" d="M2217.06,666.28C1726.4,240.63,1238.81,464.85,754.3,678.49c-484.51,215.69-965.95,420.79-1444.32,4.28"/>
			<path class="st4" d="M2217.09,630.88c-478.36-421.57-959.8-221.01-1444.32-10.18c-484.51,208.85-972.1,427.98-1462.76-2.25"/>
			<path class="st4" d="M2217.11,595.47c-233.1-207.08-468.49-268.36-706.17-250.12c-237.68,17.89-477.65,115.3-719.9,217.44
				c-242.26,101.78-486.8,208.3-733.64,236.22c-246.83,27.57-495.96-23.45-747.37-244.89"/>
			<path class="st4" d="M2217.14,560.07c-227.22-203.5-458.2-269.73-692.94-256.93c-234.74,12.25-473.24,103.53-715.49,202.27
				C566.45,603.59,320.43,709.23,70.66,737.43c-249.77,27.65-503.31-22.15-760.6-247.64"/>
			<path class="st4" d="M2217.16,524.67c-221.68-199.85-448.51-270.37-680.48-262.73c-231.97,6.92-469.08,91.99-711.34,186.79
				C583.09,542.8,335.69,646.61,83.15,674.5c-252.54,27.18-510.23-21.55-773.06-249.06"/>
			<path class="st4" d="M2217.18,489.27c-216.61-196.35-439.64-270.38-669.08-267.52c-229.44,2.02-465.28,80.93-707.54,171.26
				c-242.26,89.5-490.92,190.42-746,217.33C-160.51,636.41-422,588.48-689.9,361.09"/>
			<path class="st4" d="M2217.2,453.86c-212.16-193.18-431.84-269.87-659.05-271.33c-227.21-2.35-461.94,70.55-704.2,155.91
				c-242.26,84.47-492.04,181.4-749.34,206.56c-257.31,24.27-522.14-23.24-794.49-248.29"/>
			<path class="st4" d="M2217.22,418.46c-208.44-190.52-425.34-268.96-650.69-274.16c-225.35-6.1-459.15,61.03-701.41,140.95
				c-242.26,79.02-492.97,170.82-752.13,193.39c-259.16,21.67-526.78-25.89-802.85-246.3"/>
			<path class="st4" d="M2217.23,383.06c-205.61-186.94-420.38-267.44-644.31-276.15c-223.93-9.74-457.03,52.29-699.28,126.63
				c-242.26,73.5-493.67,159.31-754.25,177.83c-260.58,17.87-530.32-31.55-809.22-243.41"/>
			<path class="st4" d="M2217.24,347.65c-203.79-184.63-417.2-265.77-640.22-277.21c-223.02-12.48-455.66,44.73-697.92,112.95
				c-242.26,67.5-494.13,146.02-755.62,159.75c-261.49,13.34-532.6-38.11-813.32-239.59"/>
			<path class="st4" d="M2217.24,312.24C2014.12,129.37,1801.21,48.4,1578.52,34.83c-222.69-14.56-455.16,38.28-697.42,100.03
				c-484.51,122.08-1008.16,281-1570.94-95.74"/>
			<path class="st4" d="M2217.24,276.83C2013.5,95.1,1800.13,15.15,1577.13,0.08c-223-15.98-455.62,32.93-697.88,87.74
				C637,142.38,385.11,202.86,123.59,203.99c-261.52,1.53-532.66-56.28-813.44-229.29"/>
			<path class="st4" d="M2217.23,241.42C2011.45,60.18,1796.56-17.84,1572.54-33.8c-224.02-16.74-457.15,28.58-699.41,76.06
				C630.87,89.8,379.5,139.53,119,132.99c-260.5-5.65-530.11-67.57-808.85-222.72"/>
			<path class="st4" d="M2217.21,206C2007.84,24.61,1790.25-50.49,1564.44-66.79c-225.81-16.86-459.85,25.08-702.1,64.74
				C620.08,38.05,369.6,75.88,110.9,60.89c-258.7-13.55-525.62-79.9-800.77-215.08"/>
			<path class="st4" d="M2217.19,170.59C1787.88-195.35,1330.97-109.58,846.46-45.37C604.2-13.26,355.05,11.55,98.99-12.44
				c-256.06-22.01-519.02-92.81-788.88-206.2"/>
			<path class="st4" d="M2217.16,135.17C1773.63-230.72,1309.61-131.46,825.1-88.09C582.84-64.59,335.46-53.89,82.96-87.2
				c-252.5-30.82-510.13-105.67-772.87-195.9"/>
			<path class="st4" d="M2217.12,99.75c-230.84-185.21-464.53-244.77-701.08-259.51c-236.55-14.01-475.95,16.8-718.21,29.09
				c-242.26,14.1-487.37,9.71-735.33-32.93c-247.97-39.73-498.78-117.7-752.46-183.97"/>
			<path class="st4" d="M-638.95-402.89c7.12,190.23,8.89,380.26,7.99,563.23c-0.9,183.4-4.47,359.74-8.04,532.53
				c-3.57,172.8-7.14,342.04-8.04,511.26c-0.9,168.79,0.87,337.54,7.99,499.5"/>
			<path class="st4" d="M-587.9-392.58c13.84,201.22,17.29,401.54,15.54,589.31c-1.75,188.5-8.7,364.44-15.64,533.84
				c-6.95,169.4-13.89,332.24-15.64,494.59c-1.75,161.63,1.7,322.76,15.54,472.04"/>
			<path class="st4" d="M-536.85-381.33C-516.53-171-511.47,37.4-514.03,229C-516.6,421.53-526.8,597.27-537,763.88
				c-10.2,166.62-20.39,324.1-22.96,480.27c-2.57,155.25,2.49,309.19,22.81,447.55"/>
			<path class="st4" d="M-485.8-369.34c26.55,217.66,33.16,432.1,29.81,626.65c-3.36,195.59-16.68,371.28-30,535.67
				c-13.32,164.41-26.65,317.49-30,468.13c-3.35,149.62,3.26,296.79,29.81,425.85"/>
			<path class="st4" d="M-434.76-356.79c32.53,223.33,40.63,441.97,36.52,638.64c-4.11,197.75-20.43,373.52-36.76,536.18
				c-16.32,162.69-32.65,312.24-36.76,457.98c-4.11,144.69,3.99,285.55,36.52,406.75"/>
			<path class="st4" d="M-383.71-343.87c38.26,227.43,47.79,448.62,42.95,646.65c-4.83,199.09-24.03,375.04-43.23,536.41
				c-19.2,161.41-38.4,308.23-43.23,449.66c-4.83,140.42,4.7,275.43,42.95,390.08"/>
			<path class="st4" d="M-332.67-330.75c43.74,230.06,54.64,452.31,49.11,651.04c-5.53,199.7-27.48,375.89-49.43,536.37
				c-21.95,160.52-43.9,305.32-49.43,443c-5.53,136.77,5.37,266.41,49.11,375.66"/>
			<path class="st4" d="M-281.63-317.57c48.97,231.32,61.17,453.31,54.98,652.11c-6.19,199.65-30.76,376.11-55.34,536.03
				c-24.58,159.97-49.15,303.38-55.34,437.84c-6.19,133.69,6.01,258.44,54.98,363.34"/>
			<path class="st4" d="M-230.59-304.47c53.96,231.33,67.39,451.89,60.58,650.2c-6.82,199-33.89,375.74-60.97,535.39
				c-27.08,159.7-54.15,302.29-60.97,434.04c-6.82,131.16,6.62,251.49,60.58,352.95"/>
			<path class="st4" d="M-179.56-291.59c58.69,230.18,73.31,448.29,65.89,645.61c-7.42,197.82-36.87,374.83-66.32,534.44
				c-29.45,159.67-58.9,301.92-66.32,431.44c-7.42,129.12,7.2,245.51,65.89,344.36"/>
			<path class="st4" d="M-128.52-279.03C-2.18,178.8-65.58,575.1-128.99,892.88c-63.4,318.43-126.81,572.19-0.46,767.2"/>
			<path class="st4" d="M-77.49-266.91C57.33,183.33-10.33,574.41-77.98,894.14c-67.66,320.78-135.31,570.21-0.49,761.34"/>
			<path class="st4" d="M-26.46-255.31C116.33,185.38,44.67,570.94-26.98,892.7c-71.66,323.17-143.31,569.55-0.52,757.65"/>
			<path class="st4" d="M24.57-244.31c75.13,216.07,93.85,416.73,84.35,606c-9.49,188.89-47.2,366.4-84.9,527.39
				c-37.7,161.06-75.41,305.61-84.9,430.28c-9.49,125.2,9.22,230.52,84.35,325.26"/>
			<path class="st4" d="M75.59-233.99c78.62,210.67,98.2,405.62,88.27,592.1c-9.94,185.87-49.39,363.25-88.84,524.77
				c-39.45,161.59-78.91,307.32-88.84,431.65c-9.94,125.08,9.65,228.76,88.27,323.69"/>
			<path class="st4" d="M126.62-224.4c81.86,204.71,102.25,393.63,91.91,577.07c-10.34,182.61-51.42,359.74-92.5,521.79
				c-41.08,162.12-82.16,309.18-92.5,433.45c-10.34,125.24,10.05,227.7,91.91,323.17"/>
			<path class="st4" d="M177.64-215.58c84.85,198.29,105.98,380.93,95.26,561.14c-10.72,179.17-53.3,355.9-95.88,518.45
				c-42.58,162.62-85.16,311.1-95.88,435.56c-10.72,125.65,10.41,227.29,95.26,323.61"/>
			<path class="st4" d="M228.66-207.58c87.59,191.49,109.41,367.7,98.34,544.5c-11.07,175.58-55.02,351.74-98.98,514.75
				c-43.95,163.07-87.91,313-98.98,437.88c-11.07,126.26,10.75,227.47,98.34,324.91"/>
			<path class="st4" d="M279.68-200.43c90.08,184.41,112.52,354.1,101.14,527.37c-11.38,171.86-56.59,347.3-101.79,510.67
				c-45.21,163.43-90.41,314.82-101.79,440.31c-11.38,127.05,11.05,228.19,101.14,326.97"/>
			<path class="st4" d="M330.7-194.13C423.02-17,446.02,146.14,434.35,315.77c-11.67,168.06-58,342.6-104.33,506.22
				c-46.33,163.69-92.66,316.5-104.33,442.77c-11.67,127.98,11.33,229.41,103.65,329.71"/>
			<path class="st4" d="M381.72-188.7c94.32,169.72,117.81,326.38,105.89,492.29c-11.92,164.2-59.25,337.64-106.58,501.4
				c-47.33,163.81-94.66,317.97-106.58,445.15c-11.92,129.02,11.57,231.06,105.89,333.04"/>
			<path class="st4" d="M432.73-184.13c96.06,162.27,119.99,312.54,107.85,474.67c-12.14,160.3-60.35,332.47-108.55,496.22
				c-48.21,163.79-96.41,319.2-108.55,447.4c-12.14,130.15,11.79,233.09,107.85,336.88"/>
			<path class="st4" d="M483.74-180.41C581.3-25.56,605.6,118.48,593.27,276.8c-12.33,156.4-61.28,327.1-110.24,490.66
				c-48.96,163.61-97.91,320.12-110.24,449.42c-12.33,131.33,11.97,235.46,109.53,341.15"/>
			<path class="st4" d="M534.75-177.51c98.8,147.52,123.41,285.52,110.93,440.03c-12.49,152.51-62.07,321.54-111.65,484.75
				c-49.58,163.24-99.16,320.69-111.65,451.15c-12.49,132.55,12.12,238.1,110.93,345.79"/>
			<path class="st4" d="M585.76-175.41c99.8,140.35,124.66,272.55,112.05,423.27c-12.61,148.66-62.69,315.82-112.77,478.48
				c-50.08,162.68-100.16,320.89-112.77,452.53c-12.61,133.77,12.25,240.96,112.05,350.72"/>
			<path class="st4" d="M636.77-174.06C737.31-40.65,762.36,86.03,749.65,232.97c-12.71,144.85-63.16,309.96-113.62,471.87
				c-50.46,161.92-100.91,320.68-113.62,453.5c-12.71,134.97,12.34,243.99,112.88,355.87"/>
			<path class="st4" d="M687.77-173.41C788.82-46.68,813.99,74.78,801.22,217.99c-12.77,141.12-63.48,303.98-114.18,464.94
				c-50.71,160.96-101.41,320.03-114.18,454.02c-12.77,136.12,12.4,247.15,113.44,361.19"/>
			<path class="st4" d="M738.78-173.41C840.07-53.03,865.3,63.54,852.5,203.09c-12.8,137.46-63.63,297.9-114.46,457.69
				c-50.83,159.78-101.66,318.93-114.46,454.04c-12.8,137.21,12.43,250.37,113.72,366.59"/>
			<path class="st4" d="M789.78-173.99C891.07-59.6,916.3,52.43,903.5,188.39c-12.8,133.91-63.63,291.74-114.46,450.14
				c-50.83,158.38-101.66,317.36-114.46,453.52c-12.8,138.21,12.43,253.6,113.72,372.04"/>
			<path class="st4" d="M840.78-175.07C941.82-66.26,966.99,41.59,954.22,174.06c-12.77,130.46-63.48,285.52-114.18,442.32
				c-50.71,156.77-101.41,315.31-114.18,452.44c-12.77,139.11,12.4,256.81,113.44,377.46"/>
			<path class="st4" d="M891.78-176.58c100.55,103.67,125.59,207.73,112.88,336.79c-12.71,127.13-63.16,279.26-113.62,434.24
				c-50.46,154.95-100.91,312.78-113.62,450.78c-12.71,139.88,12.34,259.93,112.88,382.8"/>
			<path class="st4" d="M942.77-178.42c99.8,99,124.66,199.65,112.05,325.42c-12.61,123.93-62.69,272.98-112.77,425.94
				c-50.08,152.91-100.16,309.77-112.77,448.51c-12.61,140.52,12.25,262.93,112.05,388"/>
			<path class="st4" d="M993.77-180.49c98.8,94.82,123.41,192.44,110.93,315.06c-12.49,120.86-62.07,266.71-111.65,417.45
				c-49.58,150.68-99.16,306.28-111.65,445.62c-12.49,141,12.12,265.75,110.93,393"/>
			<path class="st4" d="M1044.76-182.7c97.56,91.15,121.86,186.14,109.53,305.72c-12.33,117.94-61.28,260.47-110.24,408.79
				c-48.96,148.25-97.91,302.33-110.24,442.12c-12.33,141.32,11.97,268.36,109.53,397.75"/>
			<path class="st4" d="M1095.75-184.92c96.06,88,119.99,180.74,107.85,297.42c-12.14,115.17-60.35,254.28-108.55,400.01
				c-48.21,145.65-96.41,297.93-108.55,438.01c-12.14,141.46,11.79,270.7,107.85,402.2"/>
			<path class="st4" d="M1146.74-187.05c94.32,85.37,117.81,176.24,105.89,290.18c-11.92,112.55-59.25,248.17-106.58,391.13
				c-47.33,142.88-94.66,293.12-106.58,433.29c-11.92,141.41,11.57,272.75,105.89,406.28"/>
			<path class="st4" d="M1197.72-188.95c92.32,83.27,115.32,172.64,103.65,283.98c-11.67,110.1-58,242.17-104.33,382.21
				c-46.33,139.96-92.66,287.91-104.33,428c-11.67,141.16,11.33,274.45,103.65,409.94"/>
			<path class="st4" d="M1248.71-190.48c90.08,81.69,112.52,169.91,101.14,278.81c-11.38,107.81-56.59,236.29-101.79,373.29
				c-45.21,136.91-90.41,282.35-101.79,422.14c-11.38,140.71,11.05,275.78,101.14,413.12"/>
			<path class="st4" d="M1299.69-191.53c87.59,80.62,109.41,168.03,98.34,274.65c-11.07,105.68-55.02,230.57-98.98,364.42
				c-43.95,133.75-87.91,276.47-98.98,415.76c-11.07,140.06,10.75,276.69,98.34,415.77"/>
			<path class="st4" d="M1350.67-191.93c84.85,80.03,105.98,166.95,95.26,271.47c-10.72,103.73-53.3,225.04-95.88,355.65
				c-42.58,130.51-85.16,270.31-95.88,408.9c-10.72,139.19,10.41,277.15,95.26,417.83"/>
			<path class="st4" d="M1401.65-191.54c81.86,79.9,102.25,166.64,91.91,269.22c-10.34,101.94-51.42,219.73-92.5,347.03
				c-41.08,127.2-82.16,263.94-92.5,401.59c-10.34,138.1,10.05,277.14,91.91,419.23"/>
			<path class="st4" d="M1452.63-190.21c78.62,80.21,98.2,167.03,88.27,267.85c-9.94,100.33-49.39,214.67-88.84,338.64
				c-39.45,123.87-78.91,257.39-88.84,393.91c-9.94,136.81,9.65,276.62,88.27,419.91"/>
			<path class="st4" d="M1503.61-187.77c75.13,80.91,93.85,168.06,84.35,267.3c-9.49,98.9-47.2,209.89-84.9,330.42
				c-75.41,242.19-150.81,518.3-0.55,805.81"/>
			<path class="st4" d="M1554.58-184.05c142.79,161.44,71.13,355.4-0.52,590.34c-71.66,233.47-143.31,507.92-0.52,796.42"/>
			<path class="st4" d="M1605.55-178.89c134.82,166.18,67.16,355.02-0.49,583.89c-67.65,227.47-135.31,494.97-0.49,786.11"/>
			<path class="st4" d="M1656.52-172.1c126.35,171.22,62.94,355.55-0.46,578.52c-63.4,221.65-126.81,481.94-0.46,774.71"/>
			<path class="st4" d="M1707.49-163.51c117.38,174.31,58.48,358.95-0.43,574.36c-58.9,213.92-117.81,470.92-0.43,762.1"/>
			<path class="st4" d="M1758.46-152.93c107.91,178.69,53.76,361.81-0.39,570.92c-27.08,105.19-54.15,218.51-60.97,343.66
				c-6.82,124.8,6.62,261.45,60.58,405.11"/>
			<path class="st4" d="M1809.42-140.17c97.95,183.05,48.79,365.1-0.36,568.7c-24.58,102.67-49.15,212.85-55.34,335.42
				c-6.19,122.17,6.01,256.74,54.98,398.8"/>
			<path class="st4" d="M1860.39-125.04c43.74,92.55,54.63,186.14,49.11,279.59c-5.53,93.79-27.48,187.43-49.43,287.91
				c-21.95,100.43-43.9,207.67-49.43,327.5c-5.53,119.39,5.37,251.37,49.11,391.18"/>
			<path class="st4" d="M1911.35-107.34c38.26,94.37,47.79,189.01,42.95,282.41c-4.83,93.77-24.03,186.28-43.23,284.84
				c-19.2,98.53-38.4,203.09-43.23,320.02c-4.83,116.48,4.7,245.33,42.95,382.14"/>
			<path class="st4" d="M1962.31-86.87c32.53,95.98,40.63,191.6,36.52,285.15c-4.11,93.92-20.43,185.78-36.76,282.82
				c-16.32,97.02-32.65,199.22-36.76,313.11c-4.11,113.46,3.99,238.63,36.52,371.6"/>
			<path class="st4" d="M2013.27-63.42c26.55,97.29,33.16,193.74,29.81,287.64c-3.35,94.25-16.68,185.96-30,281.94
				c-13.32,95.95-26.65,196.16-30,306.91c-3.36,110.35,3.26,231.24,29.81,359.46"/>
			<path class="st4" d="M2064.22-36.79c20.32,98.2,25.38,195.29,22.81,289.75c-2.57,94.77-12.76,186.9-22.96,282.31
				c-10.2,95.4-20.39,194.06-22.96,301.56c-2.57,107.17,2.49,223.19,22.81,345.6"/>
			<path class="st4" d="M2115.18-6.77c27.69,198.69,13.79,386.04-0.1,575.53c-13.89,189.07-27.79,394.48-0.1,626.98"/>
			<path class="st4" d="M2166.13,26.87c28.46,397.74-28.57,752.2-0.1,1185.81"/>
		</g>
	</g>
	<path style="clip-path:url(#SVGID_00000124154513823359051300000011928557428138198451_);fill:#DFB7FF;" d="M1983.9,1275.31
		c78.17-194.4,111.55-364.05-82.85-442.22c-100.22-40.3-257.75,88.88-348.89,130.33c-85.64,38.95-319.6,42.65-357.47,136.82
		c-78.17,194.4,101.27,307.36,295.67,385.53S1905.73,1469.71,1983.9,1275.31z"/>
	
		<use xlink:href="#SVGID_00000175302370629760103380000011874382289167627930_"  style="display:inline;overflow:visible;fill:none;stroke:#FFFFFF;stroke-width:2;stroke-miterlimit:10;"/>
</g>
<g>
	<defs>
		<rect id="SVGID_00000152228567424859092930000007981296849838317700_" width="1920" height="1080"/>
	</defs>
	<clipPath id="SVGID_00000142142243239896402980000006501258847668646840_">
		<use xlink:href="#SVGID_00000152228567424859092930000007981296849838317700_"  style="overflow:visible;"/>
	</clipPath>
	<g style="clip-path:url(#SVGID_00000142142243239896402980000006501258847668646840_);">
		<path class="st4" d="M-300,1492.03c242.5-42.22,484.94-121.82,727.32-170.21c242.38-51.54,484.7-71.87,726.95-68.06
			c242.26,1.51,484.45,27.18,726.58,14.8c242.13-13.84,484.2-65.72,726.21-252.89c0.55-389.74-0.56-778.56,0-1169.12
			c-242.5,107.95-484.94,80.1-727.32,14.28c-242.38-67.3-484.7-172.58-726.95-253.56c-242.26-83.29-484.45-142.31-726.59-170.21
			C184.08-593.98-57.99-593.9-300-631.23C-300.56,75.52-299.44,782.57-300,1492.03z"/>
		<path class="st4" d="M-300.05-567c230.84,12.05,464.53,7.53,701.08,38.26c236.55,28.11,475.95,91.47,718.21,179.03
			c242.26,85.31,487.37,194.84,735.33,263.62c247.97,66.89,498.78,93.03,752.46-31.86"/>
		<path class="st4" d="M-300.08-502.76c221.77-10.56,448.65-20.2,680.66,9.56c232.01,27.55,469.14,94.5,711.4,185.99
			c242.26,89.27,489.64,203.06,742.14,273.24c252.5,67.96,510.13,92.3,772.87-48.5"/>
		<path class="st4" d="M-300.11-438.51c214.65-30.32,436.21-45.99,664.66-17.71c228.46,26.27,463.81,96.48,706.07,191.67
			c242.26,92.99,491.41,210.95,747.47,282c256.06,68.65,519.02,90.39,788.88-64.43"/>
		<path class="st4" d="M-300.14-374.24c209.37-48.54,426.96-70.17,652.77-43.49c225.81,24.83,459.85,97.96,702.1,196.47
			C1297-124.95,1547.48-3.28,1806.18,68.27c258.7,69.01,525.62,87.9,800.77-79.77"/>
		<path class="st4" d="M-300.15-309.97c205.78-65.4,420.67-92.88,644.69-67.78c224.02,23.36,457.15,99.3,699.41,200.77
			c242.26,99.31,493.63,224.16,754.13,295.62c260.5,68.87,530.11,84.36,808.85-94.68"/>
		<path class="st4" d="M-300.16-245.7c203.74-81.27,417.11-114.28,640.1-90.59c223,22.03,455.62,100.76,697.88,204.87
			c242.26,102,494.14,229.36,755.66,300.08c261.52,68.15,532.66,79.66,813.44-109.24"/>
		<path class="st4" d="M-300.16-181.42c203.12-96.4,416.03-134.48,638.72-111.93c222.69,20.96,455.16,102.55,697.42,208.95
			c242.26,104.36,494.3,233.52,756.12,302.8c261.82,66.8,533.43,73.73,814.82-123.51"/>
		<path class="st4" d="M-300.16-117.14c203.79-110.98,417.2-153.56,640.22-131.81c223.02,20.23,455.66,104.79,697.92,213.11
			c242.26,106.4,494.13,236.55,755.62,303.68c261.49,64.8,532.6,66.57,813.32-137.51"/>
		<path class="st4" d="M-300.15-52.86c205.61-125.13,420.38-171.53,644.31-150.2C568.1-183.17,801.19-95.55,1043.45,14.32
			c242.26,108.09,493.67,238.41,754.25,302.68c260.58,62.14,530.32,58.23,809.23-151.23"/>
		<path class="st4" d="M-300.14,11.43C-91.7-127.43,125.2-176.94,350.55-155.66C575.9-135.71,809.7-44.96,1051.96,66.05
			c242.26,109.4,492.97,239.04,752.13,299.79c259.16,58.86,526.78,48.81,802.85-164.63"/>
		<path class="st4" d="M-300.12,75.72C-87.97-76.45,131.72-128.31,358.92-106.71c227.21,20.4,461.94,114.27,704.2,225.97
			c242.26,110.29,492.04,238.41,749.34,295c257.31,54.99,522.14,38.46,794.49-177.62"/>
		<path class="st4" d="M-300.11,140.01C-83.49-23.81,139.53-78.19,368.97-56.24c229.44,20.78,465.28,117.91,707.54,230.05
			c242.26,110.97,490.92,236.95,746,288.44c255.08,50.32,516.57,26.17,784.46-190.19"/>
		<path class="st4" d="M-300.08,204.31C-78.4,27.88,148.42-27.01,380.39-4.07c231.97,22.02,469.08,121.86,711.34,233.6
			c242.26,110.82,489.66,233.54,742.2,280.06c252.54,45.6,510.23,15,773.06-202.11"/>
		<path class="st4" d="M-300.06,268.61C-72.84,80.5,158.14,25.68,392.88,49.73c234.74,23.39,473.24,125.65,715.49,236.48
			c242.26,110.17,488.27,228.91,738.05,270.06c249.77,40.49,503.31,3.38,760.6-213.37"/>
		<path class="st4" d="M-300.04,332.92c233.1-198.65,468.49-252.93,706.17-227.75c237.68,24.79,477.65,129.05,719.9,238.43
			c242.26,108.99,486.8,223.11,733.64,258.59c246.83,35.08,495.96-8.47,747.37-223.88"/>
		<path class="st4" d="M-300.01,397.23c478.36-416.51,959.8-211.4,1444.32,4.28c484.51,213.64,972.1,437.86,1462.76,12.21"/>
		<path class="st4" d="M-299.99,461.55c490.66-430.23,978.25-211.1,1462.76-2.25c484.51,210.84,965.95,411.39,1444.32-10.18"/>
		<path class="st4" d="M-299.96,525.87c251.41-221.44,500.54-272.46,747.37-244.89c246.83,27.93,491.38,134.44,733.64,236.22
			c242.26,102.14,482.22,199.55,719.9,217.44c237.68,18.24,473.07-43.04,706.17-250.12"/>
		<path class="st4" d="M-299.94,590.21c257.29-225.49,510.82-275.29,760.6-247.64c249.77,28.2,495.79,133.84,738.05,232.03
			c242.26,98.74,480.75,190.02,715.49,202.27c234.74,12.8,465.72-53.43,692.94-256.93"/>
		<path class="st4" d="M-299.92,654.56C-37.08,427.04,220.6,378.32,473.15,405.5c252.54,27.9,499.94,131.7,742.2,225.78
			c242.26,94.8,479.37,179.87,711.34,186.79c231.97,7.64,458.79-62.88,680.48-262.73"/>
		<path class="st4" d="M-299.89,718.91C-32,491.52,229.49,443.59,484.57,469.67c255.08,26.91,503.74,127.84,746,217.33
			c242.26,90.33,478.1,169.23,707.54,171.26c229.44,2.85,452.46-71.17,669.08-267.52"/>
		<path class="st4" d="M-299.88,783.28c272.36-225.05,537.19-272.56,794.49-248.29c257.31,25.16,507.09,122.1,749.34,206.56
			c242.26,85.36,476.99,158.25,704.2,155.91c227.21-1.45,446.89-78.14,659.05-271.33"/>
		<path class="st4" d="M-299.86,847.66c276.07-220.41,543.69-267.97,802.85-246.3c259.16,22.57,509.87,114.37,752.13,193.39
			c242.26,79.92,476.06,147.05,701.41,140.95c225.35-5.2,442.25-83.64,650.69-274.17"/>
		<path class="st4" d="M-299.85,912.05c278.9-211.86,548.65-261.29,809.22-243.41c260.58,18.52,512,104.33,754.25,177.84
			c242.26,74.34,475.35,136.37,699.28,126.62c223.93-8.72,438.7-89.21,644.31-276.15"/>
		<path class="st4" d="M-299.84,976.45c280.72-201.48,551.83-252.93,813.32-239.59c261.49,13.74,513.36,92.26,755.62,159.76
			c242.26,68.22,474.9,125.42,697.92,112.94c223.02-11.45,436.43-92.58,640.22-277.21"/>
		<path class="st4" d="M-299.84,1040.87c562.78-376.73,1086.43-217.83,1570.94-95.68c242.26,61.71,474.73,114.55,697.42,99.98
			c222.69-13.57,435.59-94.54,638.72-277.41"/>
		<path class="st4" d="M-299.84,1105.3c280.78-173.01,551.92-230.82,813.44-229.29c261.52,1.15,513.4,61.64,755.66,116.2
			c242.26,54.82,474.88,103.7,697.88,87.71c223-15.07,436.36-95.02,640.1-276.75"/>
		<path class="st4" d="M-299.85,1169.74C-21.11,1014.58,248.51,952.66,509,947.02c260.5-6.53,511.87,43.22,754.13,90.76
			c242.26,47.48,475.39,92.78,699.41,76.03c224.02-15.97,438.91-93.99,644.69-275.23"/>
		<path class="st4" d="M-299.86,1234.18c275.14-135.17,542.07-201.54,800.77-215.07c258.7-14.97,509.18,22.89,751.44,62.99
			c242.26,39.65,476.29,81.57,702.1,64.69c225.81-16.31,443.4-91.41,652.77-272.8"/>
		<path class="st4" d="M-299.89,1298.64c269.86-113.39,532.82-184.2,788.88-206.19c256.06-23.98,505.22,0.87,747.47,32.81
			c484.51,64.28,941.42,150.11,1370.73-215.84"/>
		<path class="st4" d="M-299.92,1363.1c262.75-90.23,520.37-165.08,772.87-195.89c252.5-33.3,499.88-22.56,742.14,1.06
			c484.51,43.15,948.54,142.46,1392.07-223.44"/>
		<path class="st4" d="M-299.95,1427.57c253.67-66.27,504.49-144.24,752.46-183.96c247.97-42.62,493.08-46.98,735.33-32.87
			c242.26,12.29,481.66,43.06,718.21,29.04c236.55-14.75,470.24-74.3,701.08-259.52"/>
		<path class="st4" d="M2556.13,1053.13c28.46-397.74-28.57-752.2-0.1-1185.81"/>
		<path class="st4" d="M2505.18,1086.77c27.68-198.69,13.79-386.04-0.1-575.53c-13.89-189.07-27.79-394.48-0.1-626.98"/>
		<path class="st4" d="M2454.22,1116.79c20.32-98.2,25.38-195.29,22.81-289.75c-2.57-94.77-12.77-186.9-22.96-282.31
			c-10.2-95.4-20.39-194.06-22.96-301.56c-2.57-107.17,2.49-223.19,22.81-345.6"/>
		<path class="st4" d="M2403.27,1143.42c26.55-97.29,33.16-193.74,29.81-287.64c-3.35-94.25-16.68-185.96-30-281.94
			c-13.32-95.95-26.65-196.16-30-306.91c-3.36-110.35,3.26-231.24,29.81-359.46"/>
		<path class="st4" d="M2352.31,1166.87c32.53-95.98,40.63-191.6,36.52-285.15c-4.11-93.92-20.43-185.78-36.76-282.82
			c-16.32-97.02-32.65-199.22-36.76-313.11c-4.11-113.46,3.99-238.63,36.52-371.6"/>
		<path class="st4" d="M2301.35,1187.34c38.26-94.37,47.79-189.02,42.95-282.41c-4.83-93.77-24.03-186.28-43.23-284.84
			c-19.2-98.53-38.4-203.09-43.23-320.02c-4.83-116.48,4.7-245.33,42.95-382.14"/>
		<path class="st4" d="M2250.39,1205.04c43.74-92.55,54.64-186.14,49.11-279.59c-5.53-93.79-27.48-187.43-49.43-287.91
			c-21.95-100.43-43.9-207.67-49.43-327.5c-5.53-119.39,5.37-251.37,49.11-391.18"/>
		<path class="st4" d="M2199.42,1220.17c97.94-183.05,48.79-365.1-0.36-568.7c-24.58-102.67-49.15-212.85-55.34-335.42
			c-6.19-122.17,6.01-256.74,54.98-398.8"/>
		<path class="st4" d="M2148.46,1232.93c107.91-178.69,53.76-361.81-0.39-570.92c-27.08-105.19-54.15-218.51-60.97-343.66
			c-6.82-124.8,6.62-261.45,60.58-405.11"/>
		<path class="st4" d="M2097.49,1243.51c117.38-174.31,58.48-358.95-0.43-574.36c-58.9-213.92-117.81-470.92-0.43-762.1"/>
		<path class="st4" d="M2046.52,1252.1c126.35-171.22,62.94-355.55-0.46-578.52c-63.4-221.65-126.81-481.94-0.46-774.71"/>
		<path class="st4" d="M1995.55,1258.89c134.82-166.18,67.16-355.02-0.49-583.89c-67.65-227.47-135.31-494.97-0.49-786.11"/>
		<path class="st4" d="M1944.58,1264.05c142.79-161.44,71.13-355.4-0.52-590.34c-71.66-233.47-143.31-507.92-0.52-796.42"/>
		<path class="st4" d="M1893.61,1267.77c75.13-80.91,93.85-168.06,84.35-267.3c-9.49-98.9-47.2-209.89-84.9-330.42
			c-75.41-242.19-150.81-518.3-0.55-805.81"/>
		<path class="st4" d="M1842.63,1270.21c78.62-80.21,98.2-167.03,88.27-267.85c-9.94-100.33-49.39-214.67-88.84-338.64
			c-39.45-123.87-78.91-257.39-88.84-393.91c-9.94-136.81,9.65-276.62,88.27-419.91"/>
		<path class="st4" d="M1791.65,1271.54c81.86-79.9,102.25-166.64,91.9-269.22c-10.34-101.94-51.42-219.73-92.5-347.03
			c-41.08-127.2-82.16-263.94-92.5-401.59c-10.34-138.11,10.05-277.14,91.91-419.23"/>
		<path class="st4" d="M1740.67,1271.93c84.85-80.03,105.98-166.95,95.26-271.47c-10.72-103.73-53.3-225.04-95.88-355.65
			c-42.58-130.51-85.16-270.31-95.88-408.9c-10.72-139.19,10.41-277.15,95.26-417.83"/>
		<path class="st4" d="M1689.69,1271.53c87.59-80.62,109.41-168.03,98.34-274.65c-11.07-105.68-55.02-230.57-98.98-364.42
			c-43.95-133.75-87.91-276.47-98.98-415.76c-11.07-140.06,10.75-276.69,98.34-415.77"/>
		<path class="st4" d="M1638.71,1270.48c90.08-81.69,112.52-169.91,101.14-278.81c-11.38-107.81-56.59-236.29-101.79-373.29
			c-45.2-136.91-90.41-282.35-101.79-422.14c-11.38-140.71,11.05-275.78,101.14-413.12"/>
		<path class="st4" d="M1587.73,1268.95c92.32-83.27,115.32-172.64,103.65-283.98c-11.67-110.1-58-242.17-104.33-382.21
			c-46.33-139.96-92.66-287.91-104.33-428c-11.67-141.16,11.33-274.45,103.65-409.94"/>
		<path class="st4" d="M1536.74,1267.05c94.32-85.37,117.81-176.24,105.89-290.18c-11.92-112.55-59.25-248.17-106.58-391.13
			c-47.33-142.88-94.66-293.12-106.58-433.29c-11.92-141.41,11.57-272.75,105.89-406.28"/>
		<path class="st4" d="M1485.75,1264.92c96.06-88,119.99-180.74,107.85-297.42c-12.14-115.17-60.34-254.28-108.55-400.01
			c-48.21-145.65-96.41-297.93-108.55-438.01c-12.14-141.46,11.79-270.7,107.85-402.2"/>
		<path class="st4" d="M1434.76,1262.7c97.56-91.15,121.86-186.14,109.53-305.72c-12.33-117.94-61.28-260.47-110.24-408.79
			c-48.96-148.25-97.91-302.33-110.24-442.12c-12.33-141.32,11.97-268.36,109.53-397.75"/>
		<path class="st4" d="M1383.77,1260.49c98.8-94.82,123.41-192.44,110.93-315.06c-12.49-120.86-62.07-266.71-111.65-417.45
			c-49.58-150.68-99.16-306.28-111.65-445.62c-12.49-141,12.12-265.75,110.93-393"/>
		<path class="st4" d="M1332.77,1258.42c99.8-99,124.66-199.65,112.04-325.43c-12.61-123.93-62.69-272.98-112.77-425.94
			c-50.08-152.91-100.16-309.77-112.77-448.51c-12.61-140.52,12.25-262.93,112.05-388"/>
		<path class="st4" d="M1281.78,1256.58c100.55-103.67,125.59-207.73,112.88-336.79c-12.71-127.13-63.16-279.26-113.62-434.24
			c-50.46-154.95-100.91-312.78-113.62-450.78c-12.71-139.88,12.34-259.93,112.88-382.8"/>
		<path class="st4" d="M1230.78,1255.07c101.04-108.81,126.21-216.67,113.44-349.13c-12.77-130.46-63.48-285.52-114.18-442.32
			c-50.71-156.77-101.41-315.31-114.18-452.44c-12.77-139.11,12.4-256.81,113.44-377.46"/>
		<path class="st4" d="M1179.78,1253.99c101.29-114.39,126.52-226.42,113.72-362.38c-12.8-133.91-63.63-291.74-114.46-450.14
			c-50.83-158.38-101.66-317.36-114.46-453.52c-12.8-138.21,12.43-253.6,113.72-372.04"/>
		<path class="st4" d="M1128.78,1253.41c101.29-120.37,126.52-236.95,113.72-376.5c-12.8-137.46-63.63-297.9-114.46-457.69
			c-50.83-159.78-101.66-318.93-114.46-454.04c-12.8-137.21,12.43-250.37,113.72-366.59"/>
		<path class="st4" d="M1077.77,1253.41c101.04-126.73,126.21-248.19,113.44-391.4c-12.77-141.11-63.48-303.98-114.18-464.94
			C1026.33,236.11,975.62,77.04,962.86-56.95c-12.77-136.12,12.4-247.15,113.44-361.19"/>
		<path class="st4" d="M1026.77,1254.06c100.55-133.4,125.59-260.08,112.88-407.02c-12.71-144.85-63.16-309.96-113.62-471.87
			C975.58,213.24,925.12,54.48,912.42-78.34c-12.71-134.97,12.34-243.99,112.88-355.87"/>
		<path class="st4" d="M975.76,1255.41c99.8-140.35,124.66-272.55,112.04-423.27c-12.61-148.66-62.69-315.82-112.77-478.48
			C924.95,190.98,874.87,32.77,862.26-98.87c-12.61-133.77,12.25-240.96,112.04-350.72"/>
		<path class="st4" d="M924.75,1257.51c98.8-147.52,123.41-285.52,110.93-440.03c-12.49-152.51-62.07-321.54-111.65-484.75
			c-49.58-163.24-99.16-320.69-111.65-451.15c-12.49-132.55,12.12-238.1,110.93-345.79"/>
		<path class="st4" d="M873.74,1260.41C971.3,1105.56,995.6,961.52,983.27,803.2c-12.33-156.4-61.28-327.1-110.24-490.66
			C824.08,148.93,775.12-7.58,762.79-136.88c-12.33-131.33,11.97-235.46,109.53-341.15"/>
		<path class="st4" d="M822.73,1264.13c96.06-162.27,119.99-312.54,107.85-474.67c-12.14-160.3-60.35-332.47-108.55-496.22
			c-48.21-163.79-96.41-319.2-108.55-447.4c-12.14-130.15,11.79-233.09,107.85-336.88"/>
		<path class="st4" d="M771.72,1268.7c94.32-169.72,117.81-326.38,105.89-492.29c-11.92-164.2-59.25-337.64-106.58-501.4
			C723.7,111.2,676.37-42.96,664.45-170.14c-11.92-129.02,11.57-231.06,105.89-333.04"/>
		<path class="st4" d="M720.7,1274.13c92.32-177.13,115.32-340.28,103.65-509.9c-11.67-168.06-58-342.6-104.33-506.22
			C673.7,94.32,627.37-58.49,615.7-184.76c-11.67-127.98,11.33-229.41,103.65-329.71"/>
		<path class="st4" d="M669.68,1280.43c90.08-184.41,112.52-354.1,101.14-527.37c-11.38-171.86-56.59-347.3-101.79-510.67
			C623.82,78.96,578.62-72.43,567.23-197.92c-11.38-127.05,11.05-228.19,101.14-326.97"/>
		<path class="st4" d="M618.66,1287.58c87.59-191.49,109.41-367.7,98.34-544.5c-11.07-175.57-55.02-351.74-98.98-514.75
			c-43.96-163.07-87.91-313-98.98-437.88c-11.07-126.26,10.75-227.47,98.34-324.91"/>
		<path class="st4" d="M567.64,1295.58c84.85-198.29,105.98-380.93,95.26-561.14c-10.72-179.17-53.3-355.9-95.88-518.45
			c-42.58-162.62-85.16-311.1-95.88-435.56c-10.72-125.65,10.41-227.29,95.26-323.61"/>
		<path class="st4" d="M516.62,1304.4c81.86-204.71,102.25-393.63,91.91-577.07c-10.34-182.61-51.42-359.74-92.5-521.79
			c-41.08-162.12-82.16-309.18-92.5-433.45c-10.34-125.25,10.05-227.7,91.91-323.17"/>
		<path class="st4" d="M465.59,1313.99c78.62-210.67,98.2-405.62,88.27-592.1c-9.94-185.87-49.39-363.25-88.84-524.77
			c-39.45-161.59-78.91-307.32-88.84-431.65c-9.94-125.08,9.65-228.76,88.27-323.69"/>
		<path class="st4" d="M414.57,1324.31c75.13-216.07,93.85-416.73,84.35-606c-9.49-188.89-47.2-366.4-84.9-527.39
			c-37.7-161.06-75.41-305.61-84.9-430.28c-9.49-125.2,9.22-230.52,84.35-325.26"/>
		<path class="st4" d="M363.54,1335.31c142.79-440.69,71.13-826.24-0.52-1148.01c-71.66-323.17-143.31-569.55-0.52-757.65"/>
		<path class="st4" d="M312.51,1346.91c134.82-450.23,67.16-841.32-0.49-1161.05c-67.66-320.78-135.31-570.21-0.49-761.34"/>
		<path class="st4" d="M261.48,1359.03c126.35-457.83,62.94-854.14-0.46-1171.92c-63.4-318.43-126.81-572.19-0.46-767.2"/>
		<path class="st4" d="M210.44,1371.59c58.69-230.18,73.31-448.29,65.89-645.61c-7.42-197.82-36.87-374.83-66.32-534.44
			c-29.45-159.67-58.9-301.92-66.32-431.44c-7.42-129.12,7.2-245.51,65.89-344.36"/>
		<path class="st4" d="M159.41,1384.47c53.96-231.33,67.39-451.89,60.58-650.2c-6.82-199-33.89-375.74-60.97-535.39
			c-27.08-159.7-54.15-302.29-60.97-434.04c-6.82-131.16,6.62-251.49,60.58-352.95"/>
		<path class="st4" d="M108.37,1397.57c48.97-231.32,61.17-453.31,54.98-652.11c-6.19-199.65-30.76-376.11-55.34-536.03
			C83.44,49.46,58.86-93.96,52.67-228.42c-6.19-133.69,6.01-258.44,54.98-363.34"/>
		<path class="st4" d="M57.33,1410.75c43.74-230.06,54.64-452.31,49.11-651.04c-5.53-199.7-27.48-375.89-49.43-536.37
			c-21.95-160.52-43.9-305.32-49.43-443c-5.53-136.77,5.37-266.41,49.11-375.66"/>
		<path class="st4" d="M6.29,1423.87c38.26-227.43,47.79-448.62,42.95-646.65C44.41,578.13,25.21,402.18,6.01,240.81
			C-13.19,79.4-32.39-67.43-37.22-208.85c-4.83-140.42,4.7-275.43,42.95-390.08"/>
		<path class="st4" d="M-44.76,1436.79c32.53-223.33,40.63-441.97,36.52-638.64c-4.11-197.75-20.43-373.52-36.76-536.18
			C-61.32,99.29-77.64-50.27-81.75-196c-4.11-144.69,3.99-285.55,36.52-406.75"/>
		<path class="st4" d="M-95.8,1449.34c26.55-217.66,33.16-432.1,29.81-626.65c-3.35-195.59-16.68-371.28-30-535.67
			c-13.32-164.41-26.65-317.49-30-468.13c-3.36-149.62,3.26-296.79,29.81-425.85"/>
		<path class="st4" d="M-146.85,1461.33C-126.53,1251-121.47,1042.6-124.03,851C-126.6,658.47-136.8,482.73-147,316.12
			c-10.2-166.62-20.39-324.1-22.96-480.27c-2.57-155.25,2.49-309.19,22.81-447.55"/>
		<path class="st4" d="M-197.9,1472.58c13.84-201.22,17.29-401.54,15.54-589.31c-1.75-188.5-8.7-364.44-15.64-533.84
			c-6.95-169.4-13.89-332.24-15.64-494.59c-1.75-161.63,1.7-322.76,15.54-472.04"/>
		<path class="st4" d="M-248.95,1482.89c7.12-190.23,8.89-380.26,7.99-563.23c-0.9-183.4-4.47-359.74-8.04-532.53
			c-3.57-172.8-7.14-342.04-8.04-511.26c-0.9-168.79,0.87-337.54,7.99-499.5"/>
	</g>
	
		<use xlink:href="#SVGID_00000152228567424859092930000007981296849838317700_"  style="overflow:visible;fill:none;stroke:#FFFFFF;stroke-width:2;stroke-miterlimit:10;"/>
</g>
</svg>
